<svg width="11" height="13" viewBox="0 0 11 13" fill="none" xmlns="http://www.w3.org/2000/svg">
<path d="M3.84 12.736C3.27467 12.736 2.76267 12.6133 2.304 12.368C1.84533 12.1227 1.48267 11.7707 1.216 11.312C0.949333 10.8533 0.816 10.3147 0.816 9.696C0.816 8.94933 1.01333 8.304 1.408 7.76C1.80267 7.216 2.32533 6.832 2.976 6.608C2.32533 6.384 1.80267 6 1.408 5.456C1.01333 4.912 0.816 4.26667 0.816 3.52C0.816 2.89067 0.949333 2.352 1.216 1.904C1.48267 1.44533 1.84533 1.09333 2.304 0.848C2.76267 0.602666 3.27467 0.48 3.84 0.48C4.512 0.48 5.12533 0.656 5.68 1.008C6.23467 1.36 6.656 1.872 6.944 2.544L7.28 3.328C7.632 4.13867 8.01067 4.79467 8.416 5.296C8.82133 5.78667 9.30667 6.032 9.872 6.032C10.032 6.032 10.1813 6.016 10.32 5.984C10.4693 5.94133 10.608 5.888 10.736 5.824V7.392C10.608 7.328 10.4693 7.28 10.32 7.248C10.1813 7.20533 10.032 7.184 9.872 7.184C9.30667 7.184 8.82133 7.42933 8.416 7.92C8.01067 8.41067 7.632 9.06667 7.28 9.888L6.944 10.672C6.656 11.344 6.23467 11.856 5.68 12.208C5.12533 12.56 4.512 12.736 3.84 12.736Z" fill="#EFEFEF"/>
</svg>
