<svg width="41" height="38" viewBox="0 0 41 38" fill="none" xmlns="http://www.w3.org/2000/svg">
<path fill-rule="evenodd" clip-rule="evenodd" d="M0.226074 19C0.226074 8.50659 9.28004 0 20.4487 0C31.6173 0 40.6713 8.50659 40.6713 19C40.6713 29.4934 31.6173 38 20.4487 38C9.28004 38 0.226074 29.4934 0.226074 19ZM20.4497 8.86667C17.5205 8.86667 17.1529 8.8787 16.0025 8.92789C14.8543 8.97729 14.0705 9.14808 13.3847 9.39867C12.6754 9.6575 12.0736 10.0037 11.4741 10.5672C10.8742 11.1304 10.5057 11.6958 10.2293 12.3621C9.96191 13.0066 9.7799 13.7432 9.72822 14.8215C9.67677 15.9024 9.66329 16.248 9.66329 19.0001C9.66329 21.7522 9.67632 22.0965 9.72845 23.1774C9.78125 24.2562 9.96303 24.9926 10.2295 25.6369C10.5052 26.3034 10.8737 26.8687 11.4735 27.432C12.0727 27.9956 12.6745 28.3427 13.3834 28.6015C14.0696 28.8521 14.8536 29.0229 16.0016 29.0723C17.152 29.1215 17.5194 29.1335 20.4483 29.1335C23.3777 29.1335 23.7442 29.1215 24.8947 29.0723C26.0429 29.0229 26.8275 28.8521 27.5137 28.6015C28.2229 28.3427 28.8237 27.9956 29.423 27.432C30.0229 26.8687 30.3914 26.3034 30.6678 25.6371C30.933 24.9926 31.115 24.256 31.1689 23.1776C31.2206 22.0967 31.2341 21.7522 31.2341 19.0001C31.2341 16.248 31.2206 15.9027 31.1689 14.8218C31.115 13.743 30.933 13.0066 30.6678 12.3623C30.3914 11.6958 30.0229 11.1304 29.423 10.5672C28.823 10.0035 28.2231 9.65729 27.5131 9.39867C26.8255 9.14808 26.0413 8.97729 24.8931 8.92789C23.7426 8.8787 23.3764 8.86667 20.4463 8.86667H20.4497Z" fill="#EFEFEF"/>
<path fill-rule="evenodd" clip-rule="evenodd" d="M19.4821 10.6928C19.7693 10.6924 20.0897 10.6928 20.4497 10.6928C23.3294 10.6928 23.6707 10.7025 24.8079 10.7511C25.8595 10.7962 26.4302 10.9613 26.8104 11.1C27.3138 11.2837 27.6726 11.5033 28.0499 11.8579C28.4274 12.2126 28.661 12.5504 28.857 13.0233C29.0046 13.3801 29.1805 13.9163 29.2284 14.9043C29.2801 15.9725 29.2913 16.2934 29.2913 18.9978C29.2913 21.7021 29.2801 22.023 29.2284 23.0913C29.1803 24.0793 29.0046 24.6155 28.857 24.9723C28.6615 25.4452 28.4274 25.7819 28.0499 26.1364C27.6724 26.491 27.314 26.7106 26.8104 26.8943C26.4307 27.0336 25.8595 27.1983 24.8079 27.2434C23.6709 27.292 23.3294 27.3026 20.4497 27.3026C17.5697 27.3026 17.2284 27.292 16.0914 27.2434C15.0399 27.1978 14.4691 27.0328 14.0887 26.8941C13.5854 26.7104 13.2259 26.4908 12.8484 26.1362C12.4709 25.7815 12.2372 25.4446 12.0413 24.9714C11.8936 24.6147 11.7177 24.0784 11.6698 23.0904C11.6182 22.0222 11.6078 21.7013 11.6078 18.9953C11.6078 16.2892 11.6182 15.97 11.6698 14.9018C11.7179 13.9138 11.8936 13.3775 12.0413 13.0203C12.2367 12.5474 12.4709 12.2096 12.8484 11.855C13.2259 11.5003 13.5854 11.2807 14.0887 11.0967C14.4689 10.9573 15.0399 10.7927 16.0914 10.7473C17.0864 10.705 17.472 10.6924 19.4821 10.6903V10.6928ZM26.2069 12.3754C25.4924 12.3754 24.9126 12.9194 24.9126 13.591C24.9126 14.2623 25.4924 14.807 26.2069 14.807C26.9214 14.807 27.5011 14.2623 27.5011 13.591C27.5011 12.9196 26.9214 12.3754 26.2069 12.3754ZM20.4497 13.7962C17.3909 13.7962 14.9109 16.1262 14.9109 19.0001C14.9109 21.874 17.3909 24.203 20.4497 24.203C23.5085 24.203 25.9876 21.874 25.9876 19.0001C25.9876 16.1262 23.5085 13.7962 20.4497 13.7962Z" fill="#EFEFEF"/>
<path fill-rule="evenodd" clip-rule="evenodd" d="M20.4497 15.6223C22.4351 15.6223 24.0448 17.1345 24.0448 19.0001C24.0448 20.8655 22.4351 22.3779 20.4497 22.3779C18.464 22.3779 16.8545 20.8655 16.8545 19.0001C16.8545 17.1345 18.464 15.6223 20.4497 15.6223Z" fill="#EFEFEF"/>
</svg>
