<svg width="43" height="38" viewBox="0 0 43 38" fill="none" xmlns="http://www.w3.org/2000/svg">
<path fill-rule="evenodd" clip-rule="evenodd" d="M0.84082 19C0.84082 8.50659 10.1395 0 21.61 0C33.0805 0 42.3792 8.50659 42.3792 19C42.3792 29.4934 33.0805 38 21.61 38C10.1395 38 0.84082 29.4934 0.84082 19ZM15.5181 15.7366H10.8114V28.6738H15.5181V15.7366ZM15.8282 11.7346C15.7976 10.4662 14.8061 9.5 13.1959 9.5C11.5858 9.5 10.5331 10.4662 10.5331 11.7346C10.5331 12.9768 11.5547 13.9708 13.1348 13.9708H13.1649C14.8061 13.9708 15.8282 12.9768 15.8282 11.7346ZM32.4925 21.256C32.4925 17.2823 30.1705 15.4328 27.0732 15.4328C24.5743 15.4328 23.4554 16.6885 22.8307 17.5694V15.737H18.1234C18.1855 16.9509 18.1234 28.6742 18.1234 28.6742H22.8307V21.449C22.8307 21.0623 22.8613 20.6766 22.9857 20.3998C23.3259 19.6273 24.1004 18.8276 25.4008 18.8276C27.1046 18.8276 27.7857 20.0139 27.7857 21.7524V28.6738H32.4923L32.4925 21.256Z" fill="#EFEFEF"/>
</svg>
