<svg width="13" height="13" viewBox="0 0 13 13" fill="none" xmlns="http://www.w3.org/2000/svg">
<path fill-rule="evenodd" clip-rule="evenodd" d="M6.39925 13L6.81077 12.6656C10.2713 9.85366 12.0303 7.39838 12.0303 5.24016C12.0303 2.18379 9.46689 0 6.39925 0C3.3316 0 0.768188 2.18379 0.768188 5.24016C0.768188 7.39838 2.52715 9.85366 5.98772 12.6656L6.39925 13ZM6.39926 11.4489C3.46274 8.98608 2.01956 6.89912 2.01956 5.24016C2.01956 2.85096 3.99926 1.16441 6.39926 1.16441C8.79926 1.16441 10.779 2.85096 10.779 5.24016C10.779 6.89912 9.33578 8.98608 6.39926 11.4489ZM6.39925 2.3289C8.12698 2.3289 9.52759 3.63233 9.52759 5.24019C9.52759 6.84805 8.12698 8.15147 6.39925 8.15147C4.67151 8.15147 3.2709 6.84805 3.2709 5.24019C3.2709 3.63233 4.67151 2.3289 6.39925 2.3289ZM4.52225 5.24019C4.52225 4.27551 5.36262 3.49348 6.39926 3.49348C7.43591 3.49348 8.27628 4.27551 8.27628 5.24019C8.27628 6.20487 7.43591 6.98689 6.39926 6.98689C5.36262 6.98689 4.52225 6.20487 4.52225 5.24019Z" fill="#EFEFEF"/>
</svg>
