<svg width="43" height="38" viewBox="0 0 43 38" fill="none" xmlns="http://www.w3.org/2000/svg">
<path fill-rule="evenodd" clip-rule="evenodd" d="M0.533447 19C0.533447 8.50659 9.83212 0 21.3026 0C32.7731 0 42.0718 8.50659 42.0718 19C42.0718 29.4934 32.7731 38 21.3026 38C9.83212 38 0.533447 29.4934 0.533447 19ZM21.5156 9.5H21.5147C21.4955 9.5 21.4776 9.5 21.4605 9.50021C21.324 9.50147 21.0998 9.50346 21.0796 9.50367C20.5878 9.50367 19.6039 9.56703 18.5469 9.99259C17.9426 10.2357 17.399 10.5645 16.9313 10.9698C16.3737 11.4527 15.9195 12.0481 15.5814 12.7397C15.0863 13.7523 15.2039 15.4579 15.2982 16.8286L15.2986 16.8307C15.3087 16.9775 15.3193 17.1308 15.329 17.2802C15.2564 17.3106 15.1386 17.3427 14.9651 17.3427C14.6858 17.3427 14.3538 17.2613 13.9783 17.1008C13.8679 17.0539 13.7418 17.0302 13.6027 17.0302C13.3792 17.0302 13.1436 17.0902 12.9392 17.1998C12.682 17.3375 12.5159 17.5322 12.4707 17.748C12.441 17.8907 12.4424 18.1729 12.786 18.4591C12.975 18.6166 13.2527 18.7619 13.6111 18.891C13.7051 18.9248 13.8167 18.9571 13.9349 18.9913C14.3451 19.1102 14.966 19.2899 15.1279 19.6375C15.2099 19.8137 15.1746 20.0456 15.0232 20.3259C15.0193 20.3335 15.0153 20.341 15.0117 20.3489C14.9739 20.4295 14.6209 21.1587 13.8969 21.9279C13.4854 22.3653 13.0323 22.7308 12.5507 23.0147C11.9629 23.3612 11.3269 23.5877 10.6605 23.6879C10.3988 23.727 10.212 23.9397 10.2265 24.1814C10.231 24.2511 10.2489 24.3205 10.28 24.3877C10.2802 24.3881 10.2805 24.3885 10.2807 24.3889C10.3865 24.6147 10.6319 24.8064 11.0307 24.9756C11.5181 25.1821 12.247 25.3558 13.197 25.4917C13.245 25.575 13.2948 25.7842 13.3293 25.9275C13.3655 26.0798 13.4031 26.2364 13.4568 26.4027C13.5147 26.5829 13.665 26.7983 14.051 26.7983C14.1972 26.7983 14.3655 26.7682 14.5603 26.7337C14.8456 26.6827 15.2357 26.613 15.7226 26.613C15.9925 26.613 16.2723 26.6347 16.5539 26.6774C17.0968 26.7598 17.5647 27.0614 18.1062 27.4106C18.8987 27.9216 19.7958 28.5 21.1664 28.5C21.2038 28.5 21.2413 28.4989 21.2783 28.4965C21.3236 28.4985 21.3797 28.5 21.439 28.5C22.81 28.5 23.7068 27.9214 24.4985 27.4108L24.4998 27.4097C25.0413 27.0609 25.5088 26.7598 26.0515 26.6774C26.333 26.6348 26.6127 26.613 26.8827 26.613C27.3479 26.613 27.7162 26.6671 28.0451 26.7256C28.2597 26.7642 28.4264 26.7827 28.5544 26.7827L28.5669 26.7829H28.5799C28.8622 26.7829 29.0696 26.6416 29.1488 26.3942C29.2014 26.2314 29.2389 26.0785 29.276 25.9236C29.3082 25.7894 29.3598 25.5741 29.4078 25.49C30.3584 25.3538 31.0871 25.1805 31.5745 24.974C31.9724 24.8057 32.2175 24.6141 32.3239 24.3893C32.3558 24.3219 32.3745 24.252 32.3787 24.1809C32.3937 23.9396 32.2065 23.7265 31.9446 23.6874C28.983 23.2421 27.6488 20.4663 27.5936 20.3484C27.5901 20.3406 27.586 20.3329 27.5818 20.3254C27.4305 20.0451 27.3955 19.8134 27.4776 19.6369C27.6391 19.2896 28.2596 19.11 28.6701 18.9911C28.7889 18.9569 28.901 18.9245 28.9943 18.8908C29.3984 18.7452 29.6872 18.5873 29.8778 18.4079C30.1054 18.1941 30.1497 17.9892 30.1469 17.8552C30.14 17.5308 29.8681 17.2426 29.4357 17.1014C29.2896 17.0463 29.1231 17.0173 28.9535 17.0173C28.838 17.0173 28.6671 17.0317 28.5052 17.1006C28.1587 17.2485 27.8484 17.3294 27.5819 17.3409C27.4402 17.3344 27.3408 17.3063 27.2765 17.2796C27.2846 17.1531 27.2935 17.0231 27.3028 16.8875L27.3066 16.8295C27.4015 15.458 27.5194 13.751 27.0241 12.7377C26.6847 12.0436 26.2288 11.4467 25.669 10.9628C25.1995 10.5572 24.654 10.2285 24.0475 9.98552C22.9921 9.56311 22.0081 9.5 21.5156 9.5Z" fill="#EFEFEF"/>
</svg>
