<svg width="43" height="38" viewBox="0 0 43 38" fill="none" xmlns="http://www.w3.org/2000/svg">
<path fill-rule="evenodd" clip-rule="evenodd" d="M0.825439 19C0.825439 8.50659 10.1241 0 21.5946 0C33.0651 0 42.3638 8.50659 42.3638 19C42.3638 29.4934 33.0651 38 21.5946 38C10.1241 38 0.825439 29.4934 0.825439 19ZM32.2085 14.308C31.9537 13.4126 31.203 12.7075 30.2498 12.4682C28.5223 12.0333 21.5946 12.0333 21.5946 12.0333C21.5946 12.0333 14.6669 12.0333 12.9393 12.4682C11.986 12.7075 11.2353 13.4126 10.9806 14.308C10.5177 15.9307 10.5177 19.3167 10.5177 19.3167C10.5177 19.3167 10.5177 22.7025 10.9806 24.3254C11.2353 25.2207 11.986 25.9258 12.9393 26.1652C14.6669 26.6 21.5946 26.6 21.5946 26.6C21.5946 26.6 28.5223 26.6 30.2498 26.1652C31.203 25.9258 31.9537 25.2207 32.2085 24.3254C32.6715 22.7025 32.6715 19.3167 32.6715 19.3167C32.6715 19.3167 32.6715 15.9307 32.2085 14.308Z" fill="#EFEFEF"/>
<path fill-rule="evenodd" clip-rule="evenodd" d="M19.5177 22.8V16.4667L25.0561 19.6335L19.5177 22.8Z" fill="#EFEFEF"/>
</svg>
